Coordinates
version=1
nRows=4
nColumns=107
inDegrees=yes

Units are S.I. units (second, meters, Newtons, ...)
If the header above contains a line with 'inDegrees', this indicates whether rotational values are in degrees (yes) or radians (no).

endheader
time	sternoclavicular_r2	sternoclavicular_r3	unrotscap_r3	unrotscap_r2	acromioclavicular_r2	acromioclavicular_r3	acromioclavicular_r1	unrothum_r1	unrothum_r3	unrothum_r2	elv_angle	shoulder_elv	shoulder1_r2	shoulder_rot	elbow_flexion	pro_sup	deviation	flexion	proximal_distal_r1	proximal_distal_r3	cmc_flexion	cmc_abduction	mp_flexion	ip_flexion	mcp2_flexion	mcp2_abduction	pm2_flexion	md2_flexion	mcp3_flexion	mcp3_abduction	pm3_flexion	md3_flexion	mcp4_flexion	mcp4_abduction	pm4_flexion	md4_flexion	mcp5_flexion	mcp5_abduction	pm5_flexion	md5_flexion	bicpt_tx	bicpt_ty	bicpt_tz	bicpt2_tx	bicpt2_ty	bicpt2_tz	ptpt_tx	ptpt_ty	ptpt_tz	FCUpt_tx	FCUpt_ty	FCUpt_tz	EDCpt_tx	EDCpt_ty	EDCpt_tz	APLpt_tx	APLpt_ty	APLpt_tz	FPLpt_tx	FPLpt_ty	FPLpt_tz	FPLpt2_tx	FPLpt2_ty	FPLpt2_tz	PEC1pt2_tx	PEC1pt2_ty	PEC1pt2_tz	PEC1pt3_tx	PEC1pt3_ty	PEC1pt3_tz	PEC2pt2_tx	PEC2pt2_ty	PEC2pt2_tz	PEC2pt3_tx	PEC2pt3_ty	PEC2pt3_tz	PEC3pt2_tx	PEC3pt2_ty	PEC3pt2_tz	PEC3pt3_tx	PEC3pt3_ty	PEC3pt3_tz	DELT2pt2a_tx	DELT2pt2a_ty	DELT2pt2a_tz	DELT2pt2_tx	DELT2pt2_ty	DELT2pt2_tz	LAT1pt2_tx	LAT1pt2_ty	LAT1pt2_tz	LAT1pt3_tx	LAT1pt3_ty	LAT1pt3_tz	LAT2pt2_tx	LAT2pt2_ty	LAT2pt2_tz	LAT2pt3_tx	LAT2pt3_ty	LAT2pt3_tz	LAT3pt2_tx	LAT3pt2_ty	LAT3pt2_tz	LAT3pt3_tx	LAT3pt3_ty	LAT3pt3_tz
      0.00000000	     -0.32265070	      0.13665961	     -0.13665961	      0.32265070	     -0.06533020	      0.52797573	      0.23732146	     -0.23732146	     -0.52797573	      0.06533020	     99.77704201	     76.39042150	     -1.74143790	    -24.47000499	     28.11880865	     40.02835638	      0.15976003	      0.20345496	      0.19592590	      0.10172748	     33.74680138	      1.76100399	      4.76511283	      9.26797968	    -23.32637892	     13.18597743	      9.80987973	    -27.27618111	    -35.68451581	      7.99950088	      8.24471108	     12.95187758	    -32.74145723	      0.01023188	     -8.03139147	     20.29227065	    -39.77526126	    -14.28084267	    -12.10039262	      5.00335696	      0.00083008	     -0.03082285	     -0.00481912	      0.01657446	     -0.01783861	     -0.00746700	      0.00459236	     -0.06681246	     -0.00327450	      0.00778309	     -0.18349447	     -0.00038662	     -0.00480339	      0.00138140	      0.00014622	     -0.00024283	     -0.00009713	     -0.00048566	     -0.00031082	     -0.00093246	     -0.00052451	     -0.00001221	     -0.00021098	     -0.00025318	      0.00250391	      0.00878491	      0.00611124	     -0.00819076	      0.01977665	     -0.01875811	      0.00250391	      0.00878491	      0.00611124	      0.00055171	      0.01833372	     -0.00963369	      0.00395639	      0.00488517	      0.01598826	      0.00000000	      0.00780450	      0.00000000	     -0.00717222	     -0.03314498	     -0.00643531	      0.01622206	     -0.00057303	     -0.00500232	     -0.00089122	      0.01493858	     -0.00611124	      0.00246147	      0.02155909	     -0.01782445	     -0.00598392	      0.01294394	     -0.00547465	     -0.01247711	      0.02733082	     -0.03059863	     -0.02342642	      0.01447175	     -0.00734197	     -0.01553273	      0.03157473	     -0.03823768
      0.03333333	     -0.31941299	      0.13528827	     -0.13528827	      0.31941299	     -0.06467463	      0.52267764	      0.23494000	     -0.23494000	     -0.52267764	      0.06467463	    100.66002553	     75.62386538	     -1.75684887	    -29.11304156	     28.49668394	     45.90564878	      0.16704321	      0.27845620	      0.20386199	      0.13922810	     34.15266014	      1.74467367	      5.81388273	     10.45962219	    -24.99851069	     13.29391982	     10.00030519	    -26.12201289	    -36.48892583	      8.23157190	      8.57520659	     12.46412124	    -33.65782599	      0.00126370	     -7.55581989	     19.25858197	    -39.20307622	    -14.29705797	    -12.02909652	      5.00012792	      0.00084258	     -0.03086616	     -0.00482609	      0.01654555	     -0.01794126	     -0.00681514	      0.00415809	     -0.06709326	     -0.00374795	      0.00838019	     -0.18336726	     -0.00041521	     -0.00550866	      0.00162586	      0.00009457	     -0.00034983	     -0.00013993	     -0.00069967	     -0.00044779	     -0.00134336	     -0.00075564	     -0.00001242	     -0.00020581	     -0.00024698	      0.00247878	      0.00869675	      0.00604991	     -0.00810857	      0.01957820	     -0.01856988	      0.00247878	      0.00869675	      0.00604991	      0.00054617	      0.01814974	     -0.00953702	      0.00392733	      0.00483615	      0.01591703	      0.00000000	      0.00764758	      0.00000000	     -0.00710025	     -0.03281238	     -0.00630503	      0.01847957	     -0.00072693	     -0.00707177	     -0.00088228	      0.01478868	     -0.00604991	      0.00243677	      0.02134275	     -0.01764558	     -0.00592387	      0.01281405	     -0.00541971	     -0.01235191	      0.02705656	     -0.03029158	     -0.02319134	      0.01432653	     -0.00726830	     -0.01537687	      0.03125789	     -0.03785398
      0.06666667	     -0.32205717	      0.13640822	     -0.13640822	      0.32205717	     -0.06521003	      0.52700449	      0.23688489	     -0.23688489	     -0.52700449	      0.06521003	    100.06354244	     76.24989810	     -1.74643828	    -25.72270425	     27.82468975	     40.48008981	      0.14679303	      0.19496758	      0.18158169	      0.09748379	     33.06231857	      2.55651129	      7.33663488	      6.10045890	    -24.27153244	     13.17753758	     11.13335170	    -28.08774013	    -36.29690587	      8.10745701	      8.33489261	     15.27298748	    -34.57663327	     -0.21234461	     -9.02264390	     24.44194117	    -41.26725395	    -14.31140671	    -11.61683383	      5.06640654	      0.00082035	     -0.03078913	     -0.00481369	      0.01657506	     -0.01775871	     -0.00741863	      0.00455898	     -0.06683404	     -0.00331089	      0.00782860	     -0.18348505	     -0.00038975	     -0.00485760	      0.00139980	      0.00014292	     -0.00023128	     -0.00009251	     -0.00046257	     -0.00029604	     -0.00088813	     -0.00049958	     -0.00001178	     -0.00021931	     -0.00026317	      0.00249930	      0.00876875	      0.00610000	     -0.00817569	      0.01974027	     -0.01872360	      0.00249930	      0.00876875	      0.00610000	      0.00055069	      0.01829999	     -0.00961597	      0.00395108	      0.00487619	      0.01597531	      0.00000000	      0.00777561	      0.00000000	     -0.00715902	     -0.03308401	     -0.00641132	      0.01685954	     -0.00061386	     -0.00553208	     -0.00088958	      0.01491110	     -0.00610000	      0.00245694	      0.02151943	     -0.01779166	     -0.00597291	      0.01292013	     -0.00546458	     -0.01245416	      0.02728054	     -0.03054235	     -0.02338332	      0.01444513	     -0.00732847	     -0.01550416	      0.03151665	     -0.03816734
      0.10000000	     -0.32207005	      0.13641367	     -0.13641367	      0.32207005	     -0.06521263	      0.52702557	      0.23689437	     -0.23689437	     -0.52702557	      0.06521263	    100.04015782	     76.25294821	     -1.74603014	    -25.73490315	     27.81214971	     40.47617216	      0.14683674	      0.19496875	      0.18163026	      0.09748437	     33.06275810	      2.55694024	      7.33706169	      6.10124677	    -24.27169620	     13.17764148	     11.13311508	    -28.08758147	    -36.29639453	      8.10792905	      8.33485596	     15.27244841	    -34.57695421	     -0.21298829	     -9.02246918	     24.44154732	    -41.26697304	    -14.31195859	    -11.61645608	      5.06640985	      0.00081994	     -0.03078770	     -0.00481345	      0.01657504	     -0.01775531	     -0.00741904	      0.00455927	     -0.06683386	     -0.00331057	      0.00782821	     -0.18348513	     -0.00038971	     -0.00485713	      0.00139965	      0.00014294	     -0.00023131	     -0.00009253	     -0.00046263	     -0.00029608	     -0.00088825	     -0.00049964	     -0.00001177	     -0.00021927	     -0.00026312	      0.00249940	      0.00876910	      0.00610024	     -0.00817602	      0.01974106	     -0.01872435	      0.00249940	      0.00876910	      0.00610024	      0.00055072	      0.01830072	     -0.00961635	      0.00395119	      0.00487638	      0.01597559	      0.00000000	      0.00777624	      0.00000000	     -0.00715931	     -0.03308533	     -0.00641185	      0.01686565	     -0.00061426	     -0.00553735	     -0.00088962	      0.01491170	     -0.00610024	      0.00245704	      0.02152029	     -0.01779237	     -0.00597315	      0.01292065	     -0.00546480	     -0.01245466	      0.02728163	     -0.03054357	     -0.02338426	      0.01444571	     -0.00732876	     -0.01550478	      0.03151791	     -0.03816887
